<?xml version="1.0" ?>
<svg xmlns="http://www.w3.org/2000/svg" width="64" height="64" viewBox="0 0 64 64" >
	<path fill="none" stroke="currentColor" stroke-width="2" stroke-miterlimit="10" d="M21,40v5h22l0.001-5.107C49,36.195,53,29.564,53,22,c0-11.598-9.402-21-21-21s-21,9.402-21,21C11,29.565,14.998,36.304,21,40z" />
	<line fill="none" stroke="currentColor" stroke-width="2" stroke-miterlimit="10" x1="28" y1="45" x2="25" y2="25" />
	<line fill="none" stroke="currentColor" stroke-width="2" stroke-miterlimit="10" x1="36" y1="45" x2="39" y2="25" />
	<polyline fill="none" stroke="currentColor" stroke-width="2" stroke-miterlimit="10" points="25,26 29,29 32,26 35,29 39,26 " />
	<rect x="21" y="45" fill="none" stroke="currentColor" stroke-width="2" stroke-miterlimit="10" width="22" height="6" />
	<rect x="23" y="51" fill="none" stroke="currentColor" stroke-width="2" stroke-miterlimit="10" width="18" height="6" />
	<rect x="25" y="57" fill="none" stroke="currentColor" stroke-width="2" stroke-miterlimit="10" width="14" height="6" />
</svg>
