<?xml version="1.0" ?>
<svg xmlns="http://www.w3.org/2000/svg" version="1.1" viewBox="0 0 64 64" xml:space="preserve" >
	<g>
		<g transform="translate(378.000000, 278.000000)">
			<path fill="currentColor" d="M-345.9-222.1c-13.2,0-23.9-10.7-23.9-23.9c0-13.2,10.7-23.9,23.9-23.9     c13.2,0,23.9,10.7,23.9,23.9C-322-232.9-332.7-222.1-345.9-222.1L-345.9-222.1z M-345.9-267.4c-11.7,0-21.3,9.6-21.3,21.3     c0,11.7,9.6,21.3,21.3,21.3s21.3-9.6,21.3-21.3C-324.6-257.8-334.2-267.4-345.9-267.4L-345.9-267.4z" />
			<polyline fill="currentColor" points="-356.3,-233.8 -358.2,-235.7 -335.6,-258.3 -333.7,-256.4 -356.3,-233.8    " />
			<polyline fill="currentColor" points="-335.6,-233.8 -358.2,-256.4 -356.3,-258.3 -333.7,-235.7 -335.6,-233.8    " />
		</g>
	</g>
</svg>
