<?xml version="1.0" ?>
<svg xmlns="http://www.w3.org/2000/svg" width="21" height="20" viewBox="0 0 21 20" >
	<g stroke="none" stroke-width="1" fill="none" fill-rule="evenodd">
		<g transform="translate(-219, -280)" fill="#000000">
			<g transform="translate(56, 160)">
				<path fill="currentColor" d="M184,138.586 L182.5153,140 L176.57545,134.343 L178.06015,132.929 L184,138.586 Z M170.35,132 C167.45515,132 165.1,129.757 165.1,127 C165.1,124.243 167.45515,122 170.35,122 C173.24485,122 175.6,124.243 175.6,127 C175.6,129.757 173.24485,132 170.35,132 L170.35,132 Z M170.35,120 C166.2907,120 163,123.134 163,127 C163,130.866 166.2907,134 170.35,134 C174.4093,134 177.7,130.866 177.7,127 C177.7,123.134 174.4093,120 170.35,120 L170.35,120 Z" />
			</g>
		</g>
	</g>
</svg>
