<?xml version="1.0" ?>
<svg xmlns="http://www.w3.org/2000/svg" viewBox="0 0 32 32" >
	<path fill="none" stroke="currentColor" stroke-width="2" stroke-linejoin="round" stroke-miterlimit="10" d="M25.2,20.9l-0.7-0.7l3.5-3.5l-4.2-4.2l-0.7,0.7c-1.2,1.2-3.1,1.2-4.2,0c-1.2-1.2-1.2-3.1,0-4.2l0.7-0.7L15.3,4,l-3.5,3.5l-0.7-0.7C9.9,5.6,8,5.6,6.8,6.8c-1.2,1.2-1.2,3.1,0,4.2l0.7,0.7L4,15.3l4.2,4.2l0.7-0.7c1.2-1.2,3.1-1.2,4.2,0,c1.2,1.2,1.2,3.1,0,4.2l-0.7,0.7l4.2,4.2l3.5-3.5l0.7,0.7c1.2,1.2,3.1,1.2,4.2,0C26.4,24,26.4,22.1,25.2,20.9z" />
</svg>
