<?xml version="1.0" ?>
<svg xmlns="http://www.w3.org/2000/svg" width="20" height="20" viewBox="0 0 20 20"  >
	<g stroke="none" stroke-width="1" fill="none" fill-rule="evenodd">
		<g transform="translate(-646.000000, -1528.000000)">
			<g transform="translate(100.000000, 1428.000000)">
				<g transform="translate(544.000000, 98.000000)">
					<g>
						<polygon stroke="currentColor" points="0 0 24 0 24 24 0 24" />
						<path d="M7,11 L7,13 L17,13 L17,11 L7,11 Z M12,2 C6.48,2 2,6.48 2,12 C2,17.52 6.48,22 12,22 C17.52,22 22,17.52 22,12 C22,6.48 17.52,2 12,2 Z M12,20 C7.59,20 4,16.41 4,12 C4,7.59 7.59,4 12,4 C16.41,4 20,7.59 20,12 C20,16.41 16.41,20 12,20 Z" fill="currentColor" />
					</g>
				</g>
			</g>
		</g>
	</g>
</svg>
