<?xml version="1.0" ?>
<svg xmlns="http://www.w3.org/2000/svg" width="20" height="20" viewBox="0 0 20 20" >
	<g stroke="none" stroke-width="1" fill="none" fill-rule="evenodd">
		<g transform="translate(-442.000000, -288.000000)">
			<g transform="translate(100.000000, 100.000000)">
				<g transform="translate(340.000000, 186.000000)">
					<g>
						<polygon stroke="currentColor" points="0 0 24 0 24 24 0 24" />
						<path d="M11,7 L13,7 L13,9 L11,9 L11,7 Z M11,11 L13,11 L13,17 L11,17 L11,11 Z M12,2 C6.48,2 2,6.48 2,12 C2,17.52 6.48,22 12,22 C17.52,22 22,17.52 22,12 C22,6.48 17.52,2 12,2 Z M12,20 C7.59,20 4,16.41 4,12 C4,7.59 7.59,4 12,4 C16.41,4 20,7.59 20,12 C20,16.41 16.41,20 12,20 Z" fill="currentColor" />
					</g>
				</g>
			</g>
		</g>
	</g>
</svg>
