<?xml version="1.0" ?>
<svg xmlns="http://www.w3.org/2000/svg" viewBox="0 0 297 297" >
	<g>
		<path fill="currentColor" d="M150.08,100.079c-0.002,0-0.003,0-0.005,0l-80.031,0.041c-5.501,0.002-9.958,4.463-9.955,9.963,c0.003,5.499,4.461,9.955,9.959,9.955c0.002,0,0.004,0,0.006,0l80.031-0.04c5.5-0.003,9.957-4.464,9.954-9.964,C160.036,104.535,155.578,100.079,150.08,100.079z" />
		<path fill="currentColor" d="M288.985,246.75l-82.926-83.005c23.369-41.891,17.288-95.941-18.245-131.508C167.048,11.449,139.436,0,110.064,0,C80.691,0,53.076,11.449,32.306,32.237c-42.864,42.914-42.863,112.73,0,155.634c20.77,20.793,48.386,32.243,77.758,32.243,c19.097,0,37.446-4.845,53.657-13.944l82.89,82.969c5.063,5.069,11.815,7.861,19.011,7.861c7.196,0,13.948-2.792,19.013-7.861,l4.352-4.355C299.461,274.298,299.461,257.236,288.985,246.75z M46.398,173.794c-35.109-35.143-35.109-92.329,0-127.479,c17.006-17.021,39.617-26.397,63.666-26.397c24.049,0,46.656,9.376,63.659,26.396c35.116,35.149,35.116,92.336,0,127.48,c-17.004,17.024-39.61,26.4-63.659,26.4C86.015,200.195,63.404,190.819,46.398,173.794z M274.894,270.704l-4.353,4.356,c-1.301,1.303-3.048,2.021-4.92,2.021c-1.871,0-3.617-0.718-4.919-2.02l-80.32-80.395c2.562-2.141,5.045-4.403,7.432-6.794,c2.393-2.394,4.645-4.877,6.771-7.431l80.31,80.386C277.567,263.506,277.568,268.027,274.894,270.704z" />
	</g>
</svg>
