<?xml version="1.0" ?>
<svg version="1.1" xmlns="http://www.w3.org/2000/svg" xmlns:xlink="http://www.w3.org/1999/xlink" x="0px" y="0px" viewBox="0 0 512 512" style="enable-background:new 0 0 512 512;" xml:space="preserve">
	<style type="text/css">
		.st0{fill: ;}
                .st1{fill: ;}
                .st2{fill: ;}
                .st3{fill: ;}
	</style>
	<g>
		<g>
			<g>
				<g>
					<linearGradient gradientUnits="userSpaceOnUse" x1="245.9779" y1="50.0018" x2="265.9779" y2="50.0018">
						<stop offset="0" style="stop-color:#EE3C32" />
						<stop offset="1" style="stop-color:#FA7D00" />
					</linearGradient>
					<path class="st0" d="M256,40c-5.5,0-10,4.5-10,10s4.5,10,10,10c5.5,0,10-4.5,10-10S261.5,40,256,40z" />
				</g>
			</g>
			<g>
				<g>
					<linearGradient gradientUnits="userSpaceOnUse" x1="86.0221" y1="256" x2="425.9779" y2="256">
						<stop offset="0" style="stop-color:#EE3C32" />
						<stop offset="1" style="stop-color:#FA7D00" />
					</linearGradient>
					<path class="st1" d="M236.5,1.1C161.9,9.4,99.8,68.5,88.1,142.7c-9,57,11,114.1,53.5,152.8c15.5,14.1,24.4,34,24.4,54.5v72,c0,24.4,17.6,44.8,40.9,49.1c4.3,23.2,24.7,40.9,49.1,40.9c24.9,0,45-18,49.2-40.9c23.2-4.3,40.8-24.7,40.8-49.1v-72,c0,0,0,0,0,0s0,0,0,0c0-20.6,8.8-40.4,24.1-54.3c35.5-32.2,55.9-78,55.9-125.7C426,70.4,339.4-10.4,236.5,1.1z M256,492,c-13,0-24.2-8.5-28.3-20.1h56.6C280.2,483.3,269.3,492,256,492z M326,386h-30c-5.5,0-10,4.5-10,10s4.5,10,10,10h30v16,c0,16.5-13.5,30-30,30h-80c-16.5,0-30-13.5-30-30v-16h30c5.5,0,10-4.5,10-10s-4.5-10-10-10h-30v-26h140L326,386L326,386z M356.6,280.9c-17,15.4-27.7,36.5-30.1,59.1H185.4c-2.5-22.5-13.2-43.7-30.4-59.3c-37.5-34.1-55.1-84.5-47.2-134.9,c10.2-65,65.3-117.5,130.9-124.8C330.8,10.7,406,83.2,406,170C406,212.1,388,252.5,356.6,280.9z" />
				</g>
			</g>
			<g>
				<g>
					<linearGradient gradientUnits="userSpaceOnUse" x1="285.4344" y1="113.3" x2="385.9769" y2="113.3">
						<stop offset="0" style="stop-color:#EE3C32" />
						<stop offset="1" style="stop-color:#FA7D00" />
					</linearGradient>
					<path class="st2" d="M298.7,47.2c-5.2-1.8-10.9,0.9-12.7,6.2c-1.8,5.2,0.9,10.9,6.2,12.7C335,81,366,122.3,366,170,c0,5.5,4.5,10,10,10s10-4.5,10-10C386,113.6,349.5,64.8,298.7,47.2z" />
				</g>
			</g>
			<g>
				<g>
					<linearGradient gradientUnits="userSpaceOnUse" x1="215.9779" y1="190.7108" x2="295.9779" y2="190.7108">
						<stop offset="0" style="stop-color:#EE3C32" />
						<stop offset="1" style="stop-color:#FA7D00" />
					</linearGradient>
					<path class="st3" d="M260.7,181.9c-14.9-7.9-24.7-13.6-24.7-21.2c0-11,9-20,20-20c11,0,20,9,20,20c0,5.5,4.5,10,10,10,s10-4.5,10-10c0-18.6-12.8-34.3-30-38.7v-11.3c0-5.5-4.5-10-10-10c-5.5,0-10,4.5-10,10V122c-17.2,4.5-30,20.1-30,38.7,c0,20.2,18.8,30.1,35.3,38.8c14.9,7.9,24.7,13.6,24.7,21.2c0,11-9,20-20,20c-11,0-20-9-20-20c0-5.5-4.5-10-10-10s-10,4.5-10,10,c0,18.6,12.8,34.3,30,38.7v11.3c0,5.5,4.5,10,10,10c5.5,0,10-4.5,10-10v-11.3c17.2-4.5,30-20.1,30-38.7,C296,200.5,277.2,190.6,260.7,181.9z" />
				</g>
			</g>
		</g>
	</g>
</svg>
