<?xml version="1.0" ?>
<svg version="1.1" xmlns="http://www.w3.org/2000/svg" xmlns:xlink="http://www.w3.org/1999/xlink" x="0px" y="0px" viewBox="0 0 100 99.313" style="enable-background:new 0 0 100 99.313;" xml:space="preserve">
	<g>
		<path style="fill:#231F20;" d="M39.344,89.793c-0.99,0-1.99-0.352-2.887-1.068c-0.041-0.032-0.079-0.066-0.115-0.102l-0.613-0.608,c-0.047-0.047-0.091-0.098-0.132-0.151L0.472,41.574C0.167,41.227,0,40.797,0,40.349c0-0.726,0.43-1.21,0.561-1.342,c0.514-0.515,1.228-0.687,1.901-0.462c0.283,0.094,0.496,0.238,0.636,0.354l35.679,25.995L96.027,9.77,c0.776-0.788,2.42-0.815,3.249,0.026c0.723,0.714,0.723,1.776,0.723,2.229c0,0.317-0.103,0.625-0.295,0.878L43.042,87.86,C42.023,89.138,40.693,89.793,39.344,89.793z M38.33,86.492c1.171,0.885,2.075,0.006,2.414-0.417l52.86-69.93L39.917,67.84,c-0.509,0.49-1.296,0.544-1.867,0.128L6.978,45.33l30.878,40.692L38.33,86.492z M1.161,41.069c0.007,0.007,0.014,0.014,0.021,0.021,C1.175,41.083,1.167,41.076,1.161,41.069L1.161,41.069z M98.544,12.024h0.009H98.544z" />
	</g>
</svg>
