<?xml version="1.0" ?>
<svg width="134px" height="134px" viewBox="0 0 134 134" version="1.1" xmlns="http://www.w3.org/2000/svg" xmlns:xlink="http://www.w3.org/1999/xlink">
	<g stroke="none" stroke-width="1" fill="none" fill-rule="evenodd">
		<g transform="translate(-120.000000, -357.000000)" fill-rule="nonzero">
			<g transform="translate(120.333333, 357.333333)">
				<path d="M131.464681,38.9790071 L94.3548936,1.86950355 C93.1492199,0.663829787 91.5466667,0 89.8417021,0 C88.1364539,0 86.5339007,0.664113475 85.3285106,1.86950355 C84.1228369,3.0751773 83.4587234,4.67801418 83.4587234,6.38326241 C83.4587234,7.84595745 83.9506383,9.23177305 84.8561702,10.3631206 L7.88992908,87.3341844 C-2.61702128,97.8419858 -2.61673759,114.939291 7.89049645,125.447092 C12.9804255,130.537305 19.7478014,133.340993 26.9458156,133.340993 C34.1441135,133.340993 40.9114894,130.537589 46.0011348,125.44766 L122.967376,48.4765957 C124.095035,49.3812766 125.484539,49.875461 126.950922,49.875461 C128.655887,49.875461 130.258723,49.2113475 131.464397,48.0059574 C133.952908,45.5171631 133.952908,41.4678014 131.464681,38.9790071 Z M128.455319,44.9968794 C128.053617,45.3988652 127.519149,45.6201418 126.950922,45.6201418 C126.382695,45.6201418 125.848227,45.3988652 125.446525,44.9968794 L124.779007,44.3296454 C124.695319,44.1963121 124.597163,44.0695035 124.481135,43.9534752 C124.365106,43.8374468 124.238014,43.7392908 124.104681,43.6556028 L101.374468,20.9256738 C100.543546,20.0950355 99.1965957,20.0944681 98.3653901,20.9256738 C97.5344681,21.7565957 97.5344681,23.1038298 98.3653901,23.9344681 L119.928511,45.4975887 L42.9920567,122.438582 C38.7060993,126.724823 33.0073759,129.08539 26.9460993,129.08539 C20.884539,129.08539 15.1858156,126.724539 10.8995745,122.438014 C2.05134752,113.58922 2.05106383,99.1914894 10.8990071,90.3429787 L87.8485106,13.3889362 L92.395461,17.8853901 C93.2306383,18.7114894 94.5775887,18.7043972 95.4042553,17.8686525 C96.2303546,17.0331915 96.2229787,15.6859574 95.387234,14.8598582 L89.6553191,9.19120567 C89.5764539,9.07035461 89.4842553,8.95574468 89.378156,8.84964539 C89.267234,8.7387234 89.146383,8.64368794 89.0195745,8.5622695 L88.3370213,7.88737589 C87.9353191,7.48539007 87.7140426,6.95120567 87.7140426,6.38297872 C87.7140426,5.81475177 87.9353191,5.28028369 88.337305,4.87829787 C88.7390071,4.47631206 89.2731915,4.25503546 89.8417021,4.25503546 C90.4099291,4.25503546 90.9443972,4.47631206 91.3460993,4.87829787 L128.455603,41.9878014 C129.285106,42.8175887 129.285106,44.1673759 128.455319,44.9968794 Z" fill="#9013FE" />
				<path d="M78.8238298,77.5764539 C76.9100709,75.6629787 75.1177305,75.3412766 73.8085106,75.1060993 C72.693617,74.9060993 72.0207092,74.7852482 71.0510638,73.8153191 C70.0811348,72.8456738 69.9602837,72.1724823 69.7605674,71.0578723 C69.5256738,69.7489362 69.2039716,67.9563121 67.2904965,66.0428369 C65.3770213,64.1293617 63.5843972,63.8073759 62.275461,63.5724823 C61.1605674,63.3721986 60.4873759,63.2516312 59.5174468,62.2814184 C58.5475177,61.3114894 58.4266667,60.6382979 58.226383,59.5231206 C57.9914894,58.2141844 57.6697872,56.4215603 55.7560284,54.5078014 C55.3571631,54.1086525 54.8158865,53.884539 54.2516312,53.884539 C53.6873759,53.884539 53.1460993,54.1089362 52.7469504,54.5078014 L36.3361702,70.9202837 C35.5052482,71.7512057 35.5055319,73.0984397 36.3361702,73.9293617 C37.1673759,74.7602837 38.5143262,74.76 39.3452482,73.9293617 L53.8638298,59.4093617 C53.9296454,59.6731915 53.9807092,59.9563121 54.0377305,60.2751773 C54.2726241,61.5841135 54.5943262,63.3767376 56.5080851,65.2904965 C58.4215603,67.2042553 60.2141844,67.5259574 61.5231206,67.7608511 C62.6380142,67.9611348 63.3112057,68.0817021 64.2811348,69.0519149 C65.2507801,70.0215603 65.3716312,70.6947518 65.5716312,71.8096454 C65.8065248,73.1185816 66.1279433,74.9112057 68.0414184,76.8246809 C69.9548936,78.738156 71.747234,79.0598582 73.0564539,79.2950355 C73.3753191,79.3523404 73.658156,79.4031206 73.9222695,79.4689362 L36.9750355,116.419574 C34.3012766,119.093617 30.7395745,120.566525 26.9458156,120.566525 C23.1523404,120.566525 19.5906383,119.093901 16.9168794,116.419574 C11.3866667,110.889078 11.3866667,101.890496 16.9168794,96.36 L33.3279433,79.9475177 C34.1588652,79.1165957 34.1585816,77.7693617 33.3279433,76.9384397 C32.4967376,76.1075177 31.1497872,76.1078014 30.3188652,76.9384397 L13.9078014,93.350922 C6.71886525,100.540426 6.71886525,112.238865 13.9078014,119.428369 C17.3855319,122.906383 22.0158865,124.82156 26.9458156,124.82156 C31.8760284,124.82156 36.506383,122.906383 39.9841135,119.428369 L78.7123404,80.6964539 C79.9307801,79.4777305 79.3670922,78.1741844 78.8984397,77.6550355 C78.8746099,77.6283688 78.8493617,77.6019858 78.8238298,77.5764539 L78.8238298,77.5764539 Z" fill="#50E38C" />
				<path d="M96.124539,45.7356028 C95.2933333,46.5665248 95.2933333,47.9137589 96.1242553,48.7446809 C96.9540426,49.5741844 96.9540426,50.9239716 96.1242553,51.7534752 C95.7225532,52.155461 95.1883688,52.3764539 94.6198582,52.3764539 C94.0516312,52.3764539 93.5171631,52.1551773 93.115461,51.7531915 C92.2856738,50.9236879 92.2856738,49.5739007 93.1151773,48.7443972 C93.946383,47.9134752 93.946383,46.5662411 93.115461,45.7353191 C92.284539,44.9046809 90.937305,44.9043972 90.1066667,45.7353191 C87.6178723,48.2238298 87.6178723,52.2731915 90.106383,54.7622695 C91.3120567,55.9679433 92.9146099,56.631773 94.6198582,56.631773 C96.3251064,56.631773 97.9279433,55.9679433 99.1333333,54.7622695 C101.62156,52.2737589 101.621844,48.2243972 99.1333333,45.7356028 C98.302695,44.9052482 96.955461,44.9049645 96.124539,45.7356028 L96.124539,45.7356028 Z" fill="#50E38C" />
				<path d="M71.0496454,57.1324823 C72.7548936,57.1324823 74.3577305,56.4686525 75.5631206,55.2629787 C76.7685106,54.057305 77.4326241,52.4544681 77.4323405,50.7495035 C77.4323405,49.044539 76.768227,47.4417021 75.5625532,46.2360284 C74.7319149,45.4051064 73.3846809,45.4053901 72.5537589,46.2360284 C71.7228369,47.0669504 71.7228369,48.4141844 72.5540426,49.2451064 C72.9557447,49.6470922 73.1770213,50.1812766 73.1770213,50.7495035 C73.1770213,51.3177305 72.9560284,51.8519149 72.5540426,52.2539007 C72.1523404,52.6558865 71.618156,52.8768794 71.0496454,52.8768794 C70.4814184,52.8768794 69.9469504,52.6556028 69.5452482,52.253617 C69.1432624,51.8516312 68.9219858,51.3174468 68.9219858,50.7492199 C68.9219858,50.1809929 69.1432624,49.6465248 69.5452482,49.2448227 C70.3761702,48.4139007 70.3761702,47.0666667 69.5452482,46.2360284 C68.7140426,45.4051064 67.3670922,45.4051064 66.5361702,46.2360284 C64.0473759,48.724539 64.0473759,52.7741844 66.5361702,55.262695 C67.7415603,56.4683688 69.3443972,57.1324823 71.0496454,57.1324823 L71.0496454,57.1324823 Z" fill="#50E38C" />
			</g>
		</g>
	</g>
</svg>
