<?xml version="1.0" ?>
<svg version="1.1" xmlns="http://www.w3.org/2000/svg" xmlns:xlink="http://www.w3.org/1999/xlink" x="0px" y="0px" viewBox="0 0 302 276.7" enable-background="new 0 0 302 276.7" xml:space="preserve">
	<g>
		<path fill="#5FCCF5" stroke="#21409A" stroke-width="6.384" stroke-miterlimit="10" d="M244,203.8c0,12.6-10.2,22.9-22.9,22.9H81.7,c-12.6,0-22.9-10.2-22.9-22.9V73.3c0-12.6,10.2-22.9,22.9-22.9h139.4c12.6,0,22.9,10.2,22.9,22.9V203.8z" />
		<path fill="#FFFFFF" stroke="#21409A" stroke-width="6.384" stroke-miterlimit="10" d="M208.1,178.5c0,7.7-6.3,14-14,14h-85.3,c-7.7,0-14-6.3-14-14V98.7c0-7.7,6.3-14,14-14h85.3c7.7,0,14,6.3,14,14V178.5z" />
		<path fill="#5FCCF5" stroke="#21409A" stroke-width="6.384" stroke-miterlimit="10" d="M183.8,139c0-1,0-2-0.1-2.9l6.5-1.7,l-2.9-11.1l-6.6,1.7c-1.4-2.9-3.2-5.6-5.4-7.9l4.2-5.5l-9.1-7l-4.3,5.6c-2.8-1.4-5.8-2.4-9-3V100h-11.5v7.1c-3,0.5-5.9,1.5-8.6,2.8,l-4.2-5.6l-9.2,6.9l4.2,5.6c-1.6,1.7-3,3.5-4.2,5.5l-6.5-2.4l-4,10.8l6.3,2.3c-0.4,1.9-0.6,4-0.6,6c0,0.7,0,1.4,0.1,2.1l-6.4,1.7,l2.9,11.1l6.3-1.7c1.4,3,3.2,5.8,5.4,8.3l-3.9,5.1l9.1,7l3.9-5c2.9,1.5,6.1,2.6,9.4,3.3v6.3h11.5v-6.3c3.2-0.6,6.2-1.6,9-3l3.8,5,l9.2-6.9l-3.8-5.1c1.6-1.8,3.1-3.7,4.3-5.8l6.1,2.2l4-10.8l-6.2-2.3C183.7,142.5,183.8,140.8,183.8,139z M151.4,160.7,c-12.2,0-22.1-9.9-22.1-22.1c0-12.2,9.9-22.1,22.1-22.1c12.2,0,22.1,9.9,22.1,22.1C173.5,150.8,163.6,160.7,151.4,160.7z" />
		<g>
			<line fill="#5FCCF5" stroke="#21409A" stroke-width="6.384" stroke-miterlimit="10" x1="86.3" y1="20.6" x2="86.3" y2="50.5" />
			<line fill="#5FCCF5" stroke="#21409A" stroke-width="6.384" stroke-miterlimit="10" x1="108" y1="20.6" x2="108" y2="50.5" />
			<line fill="#5FCCF5" stroke="#21409A" stroke-width="6.384" stroke-miterlimit="10" x1="129.7" y1="20.6" x2="129.7" y2="50.5" />
			<line fill="#5FCCF5" stroke="#21409A" stroke-width="6.384" stroke-miterlimit="10" x1="151.4" y1="20.6" x2="151.4" y2="50.5" />
			<line fill="#5FCCF5" stroke="#21409A" stroke-width="6.384" stroke-miterlimit="10" x1="173.1" y1="20.6" x2="173.1" y2="50.5" />
			<line fill="#5FCCF5" stroke="#21409A" stroke-width="6.384" stroke-miterlimit="10" x1="194.8" y1="20.6" x2="194.8" y2="50.5" />
			<line fill="#5FCCF5" stroke="#21409A" stroke-width="6.384" stroke-miterlimit="10" x1="216.5" y1="20.6" x2="216.5" y2="50.5" />
		</g>
		<g>
			<line fill="#5FCCF5" stroke="#21409A" stroke-width="6.384" stroke-miterlimit="10" x1="273.9" y1="73.5" x2="244" y2="73.5" />
			<line fill="#5FCCF5" stroke="#21409A" stroke-width="6.384" stroke-miterlimit="10" x1="273.9" y1="95.2" x2="244" y2="95.2" />
			<line fill="#5FCCF5" stroke="#21409A" stroke-width="6.384" stroke-miterlimit="10" x1="273.9" y1="116.9" x2="244" y2="116.9" />
			<line fill="#5FCCF5" stroke="#21409A" stroke-width="6.384" stroke-miterlimit="10" x1="273.9" y1="138.6" x2="244" y2="138.6" />
			<line fill="#5FCCF5" stroke="#21409A" stroke-width="6.384" stroke-miterlimit="10" x1="273.9" y1="160.3" x2="244" y2="160.3" />
			<line fill="#5FCCF5" stroke="#21409A" stroke-width="6.384" stroke-miterlimit="10" x1="273.9" y1="182" x2="244" y2="182" />
			<line fill="#5FCCF5" stroke="#21409A" stroke-width="6.384" stroke-miterlimit="10" x1="273.9" y1="203.7" x2="244" y2="203.7" />
		</g>
		<g>
			<line fill="#5FCCF5" stroke="#21409A" stroke-width="6.384" stroke-miterlimit="10" x1="216.5" y1="256.6" x2="216.5" y2="226.7" />
			<line fill="#5FCCF5" stroke="#21409A" stroke-width="6.384" stroke-miterlimit="10" x1="194.8" y1="256.6" x2="194.8" y2="226.7" />
			<line fill="#5FCCF5" stroke="#21409A" stroke-width="6.384" stroke-miterlimit="10" x1="173.1" y1="256.6" x2="173.1" y2="226.7" />
			<line fill="#5FCCF5" stroke="#21409A" stroke-width="6.384" stroke-miterlimit="10" x1="151.4" y1="256.6" x2="151.4" y2="226.7" />
			<line fill="#5FCCF5" stroke="#21409A" stroke-width="6.384" stroke-miterlimit="10" x1="129.7" y1="256.6" x2="129.7" y2="226.7" />
			<line fill="#5FCCF5" stroke="#21409A" stroke-width="6.384" stroke-miterlimit="10" x1="108" y1="256.6" x2="108" y2="226.7" />
			<line fill="#5FCCF5" stroke="#21409A" stroke-width="6.384" stroke-miterlimit="10" x1="86.3" y1="256.6" x2="86.3" y2="226.7" />
		</g>
		<g>
			<line fill="#5FCCF5" stroke="#21409A" stroke-width="6.384" stroke-miterlimit="10" x1="29" y1="203.7" x2="58.9" y2="203.7" />
			<line fill="#5FCCF5" stroke="#21409A" stroke-width="6.384" stroke-miterlimit="10" x1="29" y1="182" x2="58.9" y2="182" />
			<line fill="#5FCCF5" stroke="#21409A" stroke-width="6.384" stroke-miterlimit="10" x1="29" y1="160.3" x2="58.9" y2="160.3" />
			<line fill="#5FCCF5" stroke="#21409A" stroke-width="6.384" stroke-miterlimit="10" x1="29" y1="138.6" x2="58.9" y2="138.6" />
			<line fill="#5FCCF5" stroke="#21409A" stroke-width="6.384" stroke-miterlimit="10" x1="29" y1="116.9" x2="58.9" y2="116.9" />
			<line fill="#5FCCF5" stroke="#21409A" stroke-width="6.384" stroke-miterlimit="10" x1="29" y1="95.2" x2="58.9" y2="95.2" />
			<line fill="#5FCCF5" stroke="#21409A" stroke-width="6.384" stroke-miterlimit="10" x1="29" y1="73.5" x2="58.9" y2="73.5" />
		</g>
		<g>
			<path fill="none" stroke="#21409A" stroke-width="6.384" stroke-miterlimit="10" d="M88.6,75.7c0,3.7-3,6.8-6.8,6.8,c-3.7,0-6.8-3-6.8-6.8c0-3.7,3-6.8,6.8-6.8C85.5,68.9,88.6,71.9,88.6,75.7z" />
			<path fill="none" stroke="#21409A" stroke-width="6.384" stroke-miterlimit="10" d="M88.6,201.5c0,3.7-3,6.8-6.8,6.8,c-3.7,0-6.8-3-6.8-6.8c0-3.7,3-6.8,6.8-6.8C85.5,194.7,88.6,197.7,88.6,201.5z" />
		</g>
		<g>
			<path fill="none" stroke="#21409A" stroke-width="6.384" stroke-miterlimit="10" d="M230.1,75.7c0,3.7-3,6.8-6.8,6.8,c-3.7,0-6.8-3-6.8-6.8c0-3.7,3-6.8,6.8-6.8C227.1,68.9,230.1,71.9,230.1,75.7z" />
			<path fill="none" stroke="#21409A" stroke-width="6.384" stroke-miterlimit="10" d="M230.1,201.5c0,3.7-3,6.8-6.8,6.8,c-3.7,0-6.8-3-6.8-6.8c0-3.7,3-6.8,6.8-6.8C227.1,194.7,230.1,197.7,230.1,201.5z" />
		</g>
	</g>
</svg>
