<?xml version="1.0" ?>
<svg version="1.1" xmlns="http://www.w3.org/2000/svg" xmlns:xlink="http://www.w3.org/1999/xlink" x="0px" y="0px" viewBox="0 0 387.9 387.9" style="enable-background:new 0 0 387.9 387.9;" xml:space="preserve">
	<g>
		<path d="M205.4,61.3C148.5,57,104.5,81,77.5,130.6c-26.8,49.3-22.9,99.3,11.5,144c34.6,45,81.5,60.6,137.1,48.8 c29.1-6.2,52-22.9,71.9-44.2c12.1-9.6,18.5-22.7,21.9-37.4c0.3-2.1,0.4-4.3,1-6.3C348.4,153.5,292,67.7,205.4,61.3z M180.1,76.2 c6.8-3.4,10.6-3.2,9.8,6.1c-0.6,6.4-0.1,13-0.1,19.5c0,5.8-0.5,11.6,0.1,17.3c0.8,7.8-1.2,11.3-9.8,10.1c-10-1.4-20.1-1.6-30.2-2.6 c-3.3-0.3-8.3-0.2-5.8-6C152,102.3,161.4,85.5,180.1,76.2z M155.8,82.4c-9.1,11.9-15.8,21.8-19.5,33.2c-2.4,7.4-6.5,8.5-13,6.7 c-5.6-1.5-11.2-2.7-18.6-4.5C118.5,101.6,134.3,90.8,155.8,82.4z M80.9,163c0.7-2.8,1.5-5.6,2.4-8.3c8.9-25.4,16-28.6,41.2-19.6 c3.8,1.4,4.1,2.9,3.3,6.2c-3.3,12.6-5.2,25.4-5.7,38.5c-0.2,4.5-1.5,6.6-6.3,6.3c-5.8-0.3-11.6-0.1-17.3-0.1 C74.7,186,74.7,186,80.9,163z M86,239.4c-4.1-9.7-6.5-19.8-8.2-30.2c-1.2-6.9,1.3-8.3,7.3-7.9c5,0.3,10.1,0.1,15.2,0.1 c19.9,0,19.9,0,22.9,18.7c1.3,7.8,1.9,15.9,4.1,23.4c1.8,6.3-0.5,7.6-5.7,8.1c-2.9,0.3-5.6,1.2-8.5,1.8 C93.6,257.5,93.6,257.6,86,239.4z M104.1,269.2c2.1-0.9,3-1.5,4.1-1.8c21.9-6.3,21.7-6.2,32.1,13.8c3.8,7.3,8.4,14.1,13.7,23 C133.4,296.7,117.9,285.3,104.1,269.2z M189.9,264.1c-0.3,7.2-0.1,14.5-0.1,21.7c0,0,0,0,0,0c0,7.2-0.3,14.5,0.1,21.7 c0.3,6.6-2.1,7.3-7.6,4.8c-21-9.3-30.7-27.6-38.8-47.3c-1.7-4.2,0.7-5,4.1-5.2c11.9-0.8,23.9-1.5,35.8-2.6 C188.7,256.8,190.1,259.1,189.9,264.1z M189.9,231.1c1.3,10.1-1.1,14.9-12.9,14.1c-10.3-0.7-21,0.8-31.3,2.8 c-7.2,1.4-9-1.5-9.9-7.3c-1.5-10.4-3-20.8-4.6-31.1c-0.9-5.8,0.6-8.8,7.3-8.3c7.2,0.5,14.5,0.1,23.2,0.1c7.9,0.7,20-4,25.9,1.6 C194,209.1,188.7,221.5,189.9,231.1z M188,184c-5.9,6.2-18.5,1-26.4,2c-3.1,0-4.6,0-6,0c-26.1,0-26.1,0-22.2-25.7 c3.4-21.9,3.4-21.9,24.8-20.4c6.5,0.5,13.1,1.9,19.5,1.2c11.2-1.2,13.9,3.9,12.2,13.6c-0.1,0.4,0,0.7,0,1.1 C189.3,165.4,193.8,177.9,188,184z M303.1,147.7c4,9.4,6.4,19.1,8.3,29.1c1.2,6.7-0.2,10.2-8,9.3c-4.6-0.6-9.4-0.1-14.1-0.1 c-21.4,0-21.4,0-23.5-20.8c-0.6-6.1-1-12.5-3-18.1c-3.2-8.8-0.7-12.7,8.3-13.2c1.4-0.1,2.9-0.3,4.3-0.6 C295,128.9,295,128.9,303.1,147.7z M284,117.3c-2.5,1-3.5,1.5-4.5,1.8c-21.1,5.8-21,5.8-31-13.4c-3.8-7.2-8.4-14-13.4-22.4 C255,90.5,270.4,101.6,284,117.3z M209.2,76.2c18.8,9.4,28,26.4,36,44.4c1.7,3.8-0.1,5.4-3.7,5.7c-12.2,0.9-24.5,1.7-36.7,2.7 c-4.4,0.4-5.7-1.7-5.6-5.7c0.2-7.6,0-15.2,0-22.8c0-6.1,0.4-12.3-0.1-18.4C198.2,72.5,202.6,72.9,209.2,76.2z M199,156.4 c-1.6-11.6,2.2-15.9,14.1-15.6c10.4,0.3,20.9-1.4,31.2-2.7c4.8-0.6,7.3,0.6,8.3,5.6c2.3,11.7,4.3,23.4,5.1,35.3 c0.4,5.3-1,7.2-6.3,7c-7.6-0.3-15.2-0.1-24.5-0.1c-7.8-1.1-20.5,4.4-26-2.3C196.2,177.9,200.3,165.6,199,156.4z M256.4,223.8 c-3.8,24.4-3.8,24.4-28.2,22.4c-3.6-0.3-7.2-0.9-10.8-1.2c-18.3-1.5-18.3-1.5-18.3-19.5c0-24.2,0-24.2,24.2-24.2c1.8,0,3.6,0,5.4,0 c2.9,0,5.8,0,8.7,0C259.9,201.4,259.9,201.4,256.4,223.8z M206.2,312.7c-5.4,2.1-7.2,1-7-4.7c0.3-7.6,0.1-15.2,0.1-22.8 c0-1.4,0-2.9,0-4.3c0-25,0-25,24.7-22.8c1.1,0.1,2.2,0.2,3.2,0.4c22.4,2.7,22.5,2.7,11,23.2C230.6,295.1,221.3,306.8,206.2,312.7z M233.8,304.7c9.7-12.5,16.2-23.7,20.5-35.8c2.1-5.9,4.8-6.8,10.3-5.2c6.4,1.9,13.4,2,20.3,5.7 C271.4,285.2,255.8,296.9,233.8,304.7z M308.1,225.7c-0.6,2.1-1.2,4.2-1.9,6.2c-9,26.1-15,28.7-41.1,19.3c-5-1.8-3.4-4.5-3-7.5 c1.7-11.4,4.2-22.8,5-34.3c0.5-6.8,2.8-8.8,9.2-8.1c4.7,0.5,9.4,0.1,14.1,0.1C315.4,201.4,315.4,201.4,308.1,225.7z" />
	</g>
</svg>
