<?xml version="1.0" ?>
<svg version="1.1" xmlns="http://www.w3.org/2000/svg" xmlns:xlink="http://www.w3.org/1999/xlink" x="0px" y="0px" viewBox="0 0 40 40" enable-background="new 0 0 40 40" xml:space="preserve">
	<g>
		<path d="M20,36c-1.031,0-2.962-1.11-4.02-1.771c-1.793-1.119-3.52-2.455-4.737-3.668c-3.164-3.154-4.906-7.067-4.906-11.018V9.093,c0-0.36,0.229-0.676,0.569-0.789l12.83-4.262C19.822,4.014,19.91,4,20,4c0.088,0,0.178,0.014,0.262,0.042l12.832,4.262,c0.34,0.113,0.569,0.429,0.569,0.789v10.451c0,3.95-1.741,7.863-4.906,11.018c-1.22,1.213-2.946,2.549-4.737,3.668,C22.96,34.89,21.029,36,20,36L20,36z M7.999,19.544c0,3.506,1.569,7,4.416,9.84c2.62,2.61,6.747,4.955,7.585,4.955,s4.963-2.345,7.583-4.955c2.849-2.84,4.418-6.334,4.418-9.84V9.692L20,5.704L7.999,9.692V19.544z" />
		<path d="M20.006,28.786c-0.17,0-0.332-0.051-0.472-0.147l-6.09-4.21c-0.183-0.127-0.306-0.315-0.346-0.535,c-0.04-0.218,0.008-0.439,0.134-0.621c0.155-0.223,0.411-0.358,0.684-0.358c0.17,0,0.332,0.052,0.472,0.146l5.618,3.885,l5.303-3.665l-0.042-3.67H13.916c-0.458,0-0.83-0.372-0.83-0.83v-6.218c0-0.458,0.372-0.831,0.83-0.831h12.182,c0.458,0,0.83,0.373,0.83,0.831s-0.372,0.829-0.83,0.829H14.747v4.558h11.351c0.458,0,0.83,0.372,0.83,0.831v4.966,c0,0.271-0.134,0.527-0.359,0.683l-6.089,4.21C20.34,28.735,20.178,28.786,20.006,28.786L20.006,28.786z" />
	</g>
</svg>
