<?xml version="1.0" ?>
<svg version="1.1" xmlns="http://www.w3.org/2000/svg" xmlns:xlink="http://www.w3.org/1999/xlink" x="0px" y="0px" viewBox="0 0 32 32" style="enable-background:new 0 0 32 32;" xml:space="preserve">
	<g>
		<path d="M23,14.1V8.9C23,5.1,19.9,2,16,2S9,5.1,9,8.9v5.2c-2.3,0.5-4,2.5-4,4.9v5c0,2.8,2.2,5,5,5h12c2.8,0,5-2.2,5-5v-5,C27,16.6,25.3,14.6,23,14.1z M17,23.8V25c0,0.6-0.4,1-1,1s-1-0.4-1-1v-1.2c-1.2-0.4-2-1.5-2-2.8c0-1.7,1.3-3,3-3s3,1.3,3,3,C19,22.3,18.2,23.4,17,23.8z M21,14H11V8.9C11,6.2,13.2,4,16,4s5,2.2,5,4.9V14z" />
	</g>
</svg>
