<?xml version="1.0" ?>
<svg data-name="Layer 1" xmlns="http://www.w3.org/2000/svg" viewBox="0 0 128 128">
	<defs>
		<style>.cls-1{fill:#3b4551;}</style>
	</defs>
	<path class="cls-1" d="M119.36579,92.19647a8.57041,8.57041,0,0,0-6.14534-6.435L84.05894,78.3984,69.08534,89.65089l-.20448-7.37241,1.024-6.44353H58.09509l1.0174,6.3654-.20427,7.44535L43.94106,78.3984,14.77955,85.76146a8.57074,8.57074,0,0,0-6.14534,6.435l-1.27528,30.321a3.02872,3.02872,0,0,0,3.13054,3.18852l53.51074-.522,53.51053.522a3.02867,3.02867,0,0,0,3.13033-3.18852Z" />
	<path class="cls-1" d="M60.949,66.58276c.98685.063,5.67529.08167,6.9142-.07813,13.81532-1.784,21.47553-26.03118,21.47553-38.87357a25.33868,25.33868,0,1,0-50.67736,0C38.66143,40.7224,46.62191,65.66656,60.949,66.58276Z" />
</svg>
