<?xml version="1.0" ?>
<svg version="1.1" xmlns="http://www.w3.org/2000/svg" xmlns:xlink="http://www.w3.org/1999/xlink" x="0px" y="0px" viewBox="0 0 101.3 94.3" enable-background="new 0 0 101.3 94.3" xml:space="preserve">
	<g>
		<g>
			<path fill="#66CADD" d="M34.7,47c-8.4,5.7-13.5,9.3-21.5,14.9c-3.2,2.2-5.4,9.4-1.5,15.6c4,6.4,12.4,7.2,15.7,4.9,c8.7-6.1,20-14.1,20-14.1c3.8-2.2,7-10.6,2.5-17C45.1,44.1,38.3,44.6,34.7,47z" />
			<path fill="#00677A" d="M35.3,61.3c-3.8-5.5-8.5-6.8-12.4-6.2c-4.6,3.2-6.2,4.4-9.6,6.8c-3.2,2.2-5.4,9.4-1.5,15.6,c4,6.4,12.4,7.2,15.7,4.9c2.8-2,3.8-2.8,7.9-5.7C37.9,72.8,38.8,66.5,35.3,61.3z" />
			<path fill="#B1B3B6" d="M48.4,65.2c0,0-11.3,8-20,14.1c-3.4,2.3-11.7,1.5-15.7-4.9c-2-3.1-2.4-6.5-1.9-9.3c-1.5,3.3-1.7,8,1,12.3,c4,6.4,12.4,7.2,15.7,4.9c8.7-6.1,20-14.1,20-14.1c2-1.2,3.8-4.1,4.4-7.5C51.1,62.8,49.8,64.4,48.4,65.2z" />
			<path fill="#D8DBE2" d="M34.3,47.3l-10.7,7.4l11.8-6C43.2,45,49.9,51,49.9,51C44.8,44.3,38.3,44.4,34.3,47.3z" />
		</g>
		<g>
			<path fill="#F15A29" d="M75.7,51.8c-8.4,5.7-13.5,9.3-21.5,14.9c-3.2,2.3-5.4,9.4-1.5,15.6c4,6.4,12.4,7.2,15.7,4.9,c8.7-6.1,20-14.1,20-14.1c3.7-2.2,7-10.6,2.5-17C86,48.9,79.3,49.4,75.7,51.8z" />
			<path fill="#D8DBE2" d="M76.2,66.1c-3.8-5.5-8.5-6.8-12.4-6.2c-4.6,3.2-6.2,4.4-9.6,6.8c-3.2,2.3-5.4,9.4-1.5,15.6,c4,6.4,12.4,7.2,15.7,4.9c2.8-2,3.8-2.8,7.9-5.7C78.8,77.6,79.8,71.3,76.2,66.1z" />
			<path fill="#B1B3B6" d="M89.4,70c0,0-11.3,8-20,14.1c-3.3,2.3-11.7,1.5-15.7-4.9c-2-3.1-2.4-6.5-1.9-9.3c-1.5,3.2-1.7,8,1,12.3,c4,6.4,12.4,7.2,15.7,4.9c8.7-6.1,20-14.1,20-14.1c2-1.2,3.8-4.1,4.4-7.5C92,67.6,90.7,69.2,89.4,70z" />
			<path fill="#D8DBE2" d="M75.2,52.1l-10.7,7.4l11.8-6c7.8-3.7,14.5,2.3,14.5,2.3C85.8,49.1,79.3,49.2,75.2,52.1z" />
		</g>
		<g>
			<path fill="#66CADD" d="M51.5,8.6C60,14.3,65,17.9,73,23.6c3.2,2.3,5.4,9.4,1.5,15.6c-4,6.4-12.4,7.2-15.7,4.9,c-8.7-6.1-20-14.1-20-14.1c-3.8-2.2-7-10.6-2.5-17C41.2,5.8,47.9,6.2,51.5,8.6z" />
			<path fill="#D8DBE2" d="M51,23c3.8-5.5,8.5-6.8,12.4-6.2c4.6,3.2,6.2,4.4,9.6,6.8c3.2,2.3,5.4,9.4,1.5,15.6,c-4,6.4-12.4,7.2-15.7,4.9c-2.8-2-3.8-2.8-7.9-5.7C48.4,34.4,47.4,28.1,51,23z" />
			<path fill="#B1B3B6" d="M37.8,26.9c0,0,11.3,8,20,14.1c3.3,2.4,11.7,1.5,15.7-4.9c2-3.1,2.4-6.5,1.9-9.3c1.5,3.3,1.7,8-1,12.3,c-4,6.4-12.4,7.2-15.7,4.9c-8.7-6.1-20-14.1-20-14.1c-2-1.2-3.8-4.1-4.4-7.5C35.2,24.4,36.5,26,37.8,26.9z" />
			<path fill="#D8DBE2" d="M52,8.9l10.7,7.4l-11.8-6c-7.8-3.7-14.5,2.3-14.5,2.3C41.4,5.9,47.9,6,52,8.9z" />
		</g>
	</g>
</svg>
