<?xml version="1.0" ?>
<svg version="1.1" xmlns="http://www.w3.org/2000/svg" xmlns:xlink="http://www.w3.org/1999/xlink" x="0px" y="0px" viewBox="0 0 512 512" style="enable-background:new 0 0 512 512;" xml:space="preserve">
	<g>
		<g>
			<g>
				<linearGradient gradientUnits="userSpaceOnUse" x1="0" y1="256" x2="512" y2="256">
					<stop offset="0" style="stop-color:#EE3C32" />
					<stop offset="1" style="stop-color:#FA7D00" />
				</linearGradient>
				<path class="st0" d="M482,26H30C13.5,26,0,39.5,0,56v300c0,16.5,13.5,30,30,30h176v41c-19.6,4-35,19.4-39,39h-31,c-5.5,0-10,4.5-10,10s4.5,10,10,10h240c5.5,0,10-4.5,10-10s-4.5-10-10-10h-31c-4-19.6-19.4-35-39-39v-41h176,c16.5,0,30-13.5,30-30V56C512,39.5,498.5,26,482,26z M324.3,466H187.7c4.1-11.6,15.2-20,28.3-20h80,C309,446,320.2,454.4,324.3,466z M226,426v-40h60v40H226z M492,356c0,5.5-4.5,10-10,10H30c-5.5,0-10-4.5-10-10v-51h472V356z M492,285H20V56c0-5.5,4.5-10,10-10h452c5.5,0,10,4.5,10,10V285z" />
			</g>
		</g>
		<g>
			<g>
				<linearGradient gradientUnits="userSpaceOnUse" x1="227" y1="336" x2="287" y2="336">
					<stop offset="0" style="stop-color:#EE3C32" />
					<stop offset="1" style="stop-color:#FA7D00" />
				</linearGradient>
				<path class="st1" d="M277,326h-40c-5.5,0-10,4.5-10,10s4.5,10,10,10h40c5.5,0,10-4.5,10-10S282.5,326,277,326z" />
			</g>
		</g>
		<g>
			<g>
				<linearGradient gradientUnits="userSpaceOnUse" x1="105.501" y1="165.2905" x2="425.5" y2="165.2905">
					<stop offset="0" style="stop-color:#EE3C32" />
					<stop offset="1" style="stop-color:#FA7D00" />
				</linearGradient>
				<path class="st2" d="M395.5,65.3c-16.5,0-30,13.5-30,30c0,4.6,1,8.9,2.9,12.9l-80,80c-4-1.9-8.4-2.9-12.9-2.9,c-4.6,0-9,1-12.9,2.9l-20-20c1.9-4,2.9-8.4,2.9-12.9c0-16.5-13.5-30-30-30s-30,13.5-30,30c0,4.6,1,8.9,2.9,12.9l-40,40,c-4-1.9-8.4-2.9-12.9-2.9c-16.5,0-30,13.5-30,30s13.5,30,30,30s30-13.5,30-30c0-4.6-1-9-2.9-12.9l40-40c4,1.9,8.4,2.9,12.9,2.9,s8.9-1,12.9-2.9l20,20c-1.9,4-2.9,8.4-2.9,12.9c0,16.5,13.5,30,30,30s30-13.5,30-30c0-4.6-1-9-2.9-12.9l80-80,c4,1.9,8.4,2.9,12.9,2.9c16.5,0,30-13.5,30-30S412,65.3,395.5,65.3z M135.5,245.3c-5.5,0-10-4.5-10-10s4.5-10,10-10,c5.4,0,10,4.4,10,10C145.5,240.8,141,245.3,135.5,245.3z M215.5,165.3c-5.5,0-10-4.5-10-10c0-5.5,4.5-10,10-10s10,4.5,10,10,C225.5,160.8,221,165.3,215.5,165.3z M275.5,225.3c-5.5,0-10-4.5-10-10c0-5.6,4.5-10,10-10c5.5,0,10,4.4,10,10,C285.5,220.8,281,225.3,275.5,225.3z M395.5,105.3c-5.5,0-10-4.5-10-10c0-5.5,4.5-10,10-10s10,4.5,10,10S401,105.3,395.5,105.3z" />
			</g>
		</g>
	</g>
</svg>
