<?xml version="1.0" ?>
<svg xmlns="http://www.w3.org/2000/svg" viewBox="0 0 64 64">
	<defs>
		<style>.cls-1{fill:#35353d;}</style>
	</defs>
	<g data-name="Layer 2">
		<g data-name="Layer 1">
			<path class="cls-1" d="M56,0H8A8,8,0,0,0,0,8V56a8,8,0,0,0,8,8H56a8,8,0,0,0,8-8V8A8,8,0,0,0,56,0Zm2.67,56A2.68,2.68,0,0,1,56,58.67H8A2.68,2.68,0,0,1,5.33,56V8A2.68,2.68,0,0,1,8,5.33H56A2.68,2.68,0,0,1,58.67,8Z" />
			<path class="cls-1" d="M50.67,29.33h-16v-16a2.67,2.67,0,0,0-5.34,0v16h-16a2.67,2.67,0,0,0,0,5.34h16v16a2.67,2.67,0,0,0,5.34,0v-16h16a2.67,2.67,0,0,0,0-5.34Z" />
		</g>
	</g>
</svg>
