<?xml version="1.0" ?>
<svg version="1.1" xmlns="http://www.w3.org/2000/svg" xmlns:xlink="http://www.w3.org/1999/xlink" x="0px" y="0px" viewBox="0 0 32 32" style="enable-background:new 0 0 32 32;" xml:space="preserve">
	<style type="text/css"> .st0{fill:none;stroke:#000000;stroke-width:2;stroke-linecap:round;stroke-linejoin:round;stroke-miterlimit:10;} </style>
	<path class="st0" d="M8.8,2C5,2,2,5,2,8.7v10.1V23l0,0c3.1-2.7,7.1-4.2,11.3-4.2h4c3.7,0,6.8-3,6.8-6.7V8.7C24,5,21,2,17.2,2H8.8z" />
	<path class="st0" d="M14.8,9C11,9,8,12,8,15.7v10.1V30l0,0c3.1-2.7,7.1-4.2,11.3-4.2h4c3.7,0,6.8-3,6.8-6.7v-3.4C30,12,27,9,23.2,9,H14.8z" />
</svg>
