<?xml version="1.0" ?>
<svg version="1.1" xmlns="http://www.w3.org/2000/svg" xmlns:xlink="http://www.w3.org/1999/xlink" x="0px" y="0px" viewBox="0 0 50 50" style="enable-background:new 0 0 50 50;" xml:space="preserve">
	<g>
		<path d="M7,31c3.309,0,6-2.691,6-6s-2.691-6-6-6s-6,2.691-6,6S3.691,31,7,31z M7,21c2.206,0,4,1.794,4,4s-1.794,4-4,4s-4-1.794-4-4,S4.794,21,7,21z" />
		<path d="M19,25c0,3.309,2.691,6,6,6s6-2.691,6-6s-2.691-6-6-6S19,21.691,19,25z M29,25c0,2.206-1.794,4-4,4s-4-1.794-4-4,s1.794-4,4-4S29,22.794,29,25z" />
		<path d="M43,19c-3.309,0-6,2.691-6,6s2.691,6,6,6s6-2.691,6-6S46.309,19,43,19z M43,29c-2.206,0-4-1.794-4-4s1.794-4,4-4,s4,1.794,4,4S45.206,29,43,29z" />
	</g>
</svg>
