<?xml version="1.0" ?>
<svg version="1.1" xmlns="http://www.w3.org/2000/svg" xmlns:xlink="http://www.w3.org/1999/xlink" x="0px" y="0px" viewBox="0 0 102 266.7" enable-background="new 0 0 102 266.7" xml:space="preserve">
	<g>
		<path fill="#5FCCF5" stroke="#21409A" stroke-width="6.384" stroke-miterlimit="10" d="M65.3,192.2c0-0.2,0-0.4,0-0.6V79,c0-0.8-0.1-1.6-0.2-2.3c13.8-5.5,23.5-19,23.5-34.8c0-15.4-9.3-28.6-22.5-34.3V42H36.3V7.7c-13.3,5.8-22.5,19-22.5,34.3,c0,15.8,9.8,29.2,23.5,34.8c-0.1,0.7-0.2,1.4-0.2,2.3v112.6c0,0.1,0,0.2,0,0.3c-13.9,5.5-23.7,19-23.7,34.8,c0,15.4,9.3,28.6,22.5,34.3v-34.3h29.8V261c13.3-5.8,22.5-19,22.5-34.3C88.4,211.1,78.9,197.8,65.3,192.2z" />
		<path fill="#FFFFFF" stroke="#21409A" stroke-width="6.384" stroke-miterlimit="10" d="M55.6,182.7c0,2-2,3.7-4.5,3.7l0,0,c-2.5,0-4.5-1.7-4.5-3.7V86.1c0-2,2-3.7,4.5-3.7l0,0c2.5,0,4.5,1.7,4.5,3.7V182.7z" />
		<path fill="none" stroke="#21409A" stroke-width="6.384" stroke-miterlimit="10" d="M78.8,43.9C78.5,59,65.9,71,50.8,70.7" />
		<path fill="none" stroke="#21409A" stroke-width="6.384" stroke-miterlimit="10" d="M23.4,232.1c0.4-15.1,12.9-27.1,28-26.8" />
	</g>
</svg>
